<?xml version="1.0" encoding="utf-8"?>
<!-- Generator: Adobe Illustrator 25.2.0, SVG Export Plug-In . SVG Version: 6.00 Build 0)  -->
<svg version="1.1" id="Layer_1" xmlns="http://www.w3.org/2000/svg" xmlns:xlink="http://www.w3.org/1999/xlink" x="0px" y="0px"
	 viewBox="0 0 178.8 162.9" style="enable-background:new 0 0 178.8 162.9;" xml:space="preserve">
<style type="text/css">
	.st0{fill:url(#SVGID_1_);}
</style>
<linearGradient id="SVGID_1_" gradientUnits="userSpaceOnUse" x1="968.8697" y1="267.5564" x2="1027.0143" y2="127.4654" gradientTransform="matrix(-1 0 0 1 1083.14 -112.5398)">
	<stop  offset="0" style="stop-color:#37D3AD"/>
	<stop  offset="0.34" style="stop-color:#37D6AD"/>
	<stop  offset="0.55" style="stop-color:#37DDAD"/>
	<stop  offset="0.72" style="stop-color:#37E6AD"/>
	<stop  offset="1" style="stop-color:#37FEAD"/>
	<stop  offset="1" style="stop-color:#37FFAD"/>
</linearGradient>
<path class="st0" d="M96,94.1L11,79.9c-1.5-0.2-2.2-2.1-1.2-3.4L55,15.7c0.8-1.1,2.3-1.1,3.1,0l12,15.4c0.8,1,2.3,1,3.1,0L95.7,0.8
	c0.8-1.1,2.3-1.1,3.1,0l31.1,41.8c0.8,1,2.3,1.1,3.1,0l2.7-3.4c0.8-1,2.3-1,3.1,0l39.6,53.3c0.6,0.9,0.6,2.1-0.2,2.8l-58.1,57
	c-0.6,0.6-1.4,0.7-2.2,0.4l-16.2-7.9c-0.6-0.3-1.3-0.2-1.8,0.1l-27.3,17.5c-0.7,0.5-1.7,0.4-2.3-0.2L0.7,97.8
	c-1.4-1.3-0.5-3.7,1.3-3.7L96,94.1L96,94.1z"/>
</svg>
