<?xml version="1.0" encoding="UTF-8"?>
<svg id="Layer_1" data-name="Layer 1" xmlns="http://www.w3.org/2000/svg" xmlns:xlink="http://www.w3.org/1999/xlink" viewBox="0 0 531.2 162.86">
  <defs>
    <style>
      .cls-1 {
        fill: url(#Degradado_sin_nombre_3);
      }

      .cls-1, .cls-2 {
        stroke-width: 0px;
      }
    </style>
    <linearGradient id="Degradado_sin_nombre_3" data-name="Degradado sin nombre 3" x1="1030.87" y1="574.34" x2="1089.01" y2="714.42" gradientTransform="translate(1145.14 729.35) rotate(-180)" gradientUnits="userSpaceOnUse">
      <stop offset="0" stop-color="#37d3ad"/>
      <stop offset=".34" stop-color="#37d6ad"/>
      <stop offset=".55" stop-color="#37ddad"/>
      <stop offset=".72" stop-color="#37e6ad"/>
      <stop offset="1" stop-color="#37fead"/>
      <stop offset="1" stop-color="#37ffad"/>
    </linearGradient>
  </defs>
  <g>
    <path class="cls-2" d="m250.46,98.82v40.5h-17.34V40.31h61.22v15.98h-43.88v26.95h36.84v15.57h-36.84Z"/>
    <path class="cls-2" d="m307.74,139.31V38.55h16.39v100.77h-16.39Z"/>
    <path class="cls-2" d="m373.29,70.51c20.72,0,35.76,14.35,35.76,35.21s-15.04,35.21-35.76,35.21-35.76-14.35-35.76-35.21,15.03-35.21,35.76-35.21Zm0,55.66c11.38,0,19.23-8.26,19.23-20.45s-7.86-20.45-19.23-20.45-19.23,8.26-19.23,20.45,7.86,20.45,19.23,20.45Z"/>
    <path class="cls-2" d="m419.2,120.22c0-12.33,8.94-20.05,24.78-21.26l20.04-1.49v-1.49c0-9.08-5.42-12.73-13.81-12.73-9.75,0-15.17,4.06-15.17,11.11h-14.09c0-14.49,11.92-23.97,30.07-23.97s29.12,9.75,29.12,28.31v40.63h-14.49l-1.22-9.89c-2.84,6.91-11.92,11.65-22.35,11.65-14.22,0-22.89-8.26-22.89-20.86Zm44.96-7.99v-3.52l-13.95,1.08c-10.29.95-14.22,4.33-14.22,9.75,0,6.1,4.06,9.08,11.51,9.08,10.16,0,16.66-6.09,16.66-16.39Z"/>
    <path class="cls-2" d="m501.67,139.31v-53.09h-12.87v-13.81h12.87v-20.86h16.52v20.86h13v13.81h-13v53.09h-16.52Z"/>
  </g>
  <path class="cls-1" d="m95.96,94.11l-84.96-14.17c-1.49-.25-2.18-2.12-1.24-3.39L55.01,15.7c.78-1.05,2.27-1.07,3.07-.04l12.03,15.42c.8,1.03,2.29,1.01,3.07-.04L95.66.8c.79-1.06,2.3-1.06,3.1,0l31.13,41.83c.78,1.05,2.26,1.07,3.07.04l2.68-3.44c.8-1.03,2.29-1.01,3.07.04l39.64,53.32c.64.86.55,2.11-.21,2.85l-58.06,57.01c-.58.57-1.43.72-2.16.37l-16.23-7.86c-.59-.29-1.28-.24-1.83.11l-27.32,17.49c-.73.47-1.67.38-2.31-.22L.68,97.81c-1.38-1.28-.53-3.69,1.3-3.69h93.98Z"/>
</svg>