<?xml version="1.0" encoding="UTF-8"?>
<svg xmlns:xodm="http://www.corel.com/coreldraw/odm/2003" xmlns="http://www.w3.org/2000/svg" xmlns:xlink="http://www.w3.org/1999/xlink" version="1.1" id="Layer_1" x="0px" y="0px" viewBox="0 0 2500 1042" style="enable-background:new 0 0 2500 1042;" xml:space="preserve">
<style type="text/css">
	.st0{fill:#00EF8B;}
	.st1{fill:#FFFFFF;}
</style>
<g id="Layer_x0020_1">
	<g id="_2090388197248">
		<g>
			<path d="M1434,520h-67v253h-94V520h-48v-81h48v-32c0-82,51-124,127-124c12,0,24,2,35,4v95c-10-4-21-6-32-6c-5,0-10,0-15,2     s-9,4-12,8c-4,4-6,8-8,12c-2,5-2,10-2,15v25h67v82H1434z M1575,773h-95V291h95V773z"></path>
			<path d="M1786,418c36,0,70,11,100,30c30,20,53,48,66,81c14,33,17,70,10,105s-24,68-49,93s-57,43-92,50s-71,3-104-10     c-33-14-61-37-81-67s-30-65-30-101c0-24,4-48,13-70s22-42,39-59s37-30,58-39c22-9,45-13,69-13H1786z M1786,688c48,0,83-41,83-89     c1-11-1-23-5-33c-4-11-10-20-18-29c-8-8-17-15-28-19c-10-4-22-7-33-7c-23,1-44,10-60,27c-16,16-25,39-25,61c0,23,9,45,25,61     s37,26,60,27L1786,688z"></path>
			<polygon points="2064,425 2125,656 2186,472 2169,425 2263,425 2343,656 2403,425 2500,425 2398,773 2299,773 2231,582 2167,772      2068,772 1966,425    "></polygon>
		</g>
		<g>
			<path class="st0" d="M521,1042c288,0,521-233,521-521S809,0,521,0S0,233,0,521S233,1042,521,1042z"></path>
			<polygon class="st1" points="749,439 602,439 602,586 749,586    "></polygon>
			<path class="st1" d="M455,642c0,11-3,22-9,31s-15,16-25,20s-21,5-32,3s-21-7-28-15c-8-8-13-18-15-28c-2-11-1-22,3-32s11-19,20-25     s20-9,31-9h55V440h-55c-40,0-79,12-112,34s-59,54-74,91s-19,78-12,117c8,39,27,75,55,104c28,28,64,48,104,55c39,8,80,4,117-12     c37-15,69-41,91-74s34-72,34-112v-55H456v55L455,642z"></path>
			<path class="st1" d="M658,366h165V219H658c-54,0-105,21-143,59s-59,89-59,143v18h147v-18c0-15,6-29,16-39S643,366,658,366z"></path>
			<polygon class="st0" points="455,586 602,586 602,439 455,439    "></polygon>
		</g>
	</g>
</g>
</svg>
